<svg xmlns="http://www.w3.org/2000/svg" xmlns:xlink="http://www.w3.org/1999/xlink" contentStyleType="text/css" data-diagram-type="CLASS" height="437px" preserveAspectRatio="none" style="width:575px;height:437px;background:#FFFFFF;" version="1.1" viewBox="0 0 575 437" width="575px" zoomAndPan="magnify"><defs/><g><!--class LandmarkStream--><g class="entity" data-entity="LandmarkStream" data-source-line="2" data-uid="ent0002" id="entity_LandmarkStream"><rect fill="#F1F1F1" height="48" rx="2.5" ry="2.5" style="stroke:#181818;stroke-width:0.5;" width="146.5156" x="126.08" y="257"/><ellipse cx="141.08" cy="273" fill="#B4A7E5" rx="11" ry="11" style="stroke:#181818;stroke-width:1;"/><path d="M137.5077,269.2651 L137.5077,267.1069 L144.8871,267.1069 L144.8871,269.2651 L142.4218,269.2651 L142.4218,277.3418 L144.8871,277.3418 L144.8871,279.5 L137.5077,279.5 L137.5077,277.3418 L139.9731,277.3418 L139.9731,269.2651 Z " fill="#000000"/><text fill="#000000" font-family="sans-serif" font-size="14" font-style="italic" lengthAdjust="spacing" textLength="114.5156" x="155.08" y="278.291">LandmarkStream</text><line style="stroke:#181818;stroke-width:0.5;" x1="127.08" x2="271.5956" y1="289" y2="289"/><line style="stroke:#181818;stroke-width:0.5;" x1="127.08" x2="271.5956" y1="297" y2="297"/></g><!--class RecordedStream--><g class="entity" data-entity="RecordedStream" data-source-line="3" data-uid="ent0003" id="entity_RecordedStream"><rect fill="#F1F1F1" height="48" rx="2.5" ry="2.5" style="stroke:#181818;stroke-width:0.5;" width="142.6807" x="7" y="382"/><ellipse cx="22" cy="398" fill="#ADD1B2" rx="11" ry="11" style="stroke:#181818;stroke-width:1;"/><path d="M24.4731,404.1431 Q23.8921,404.4419 23.2529,404.5913 Q22.6138,404.7407 21.9082,404.7407 Q19.4014,404.7407 18.0815,403.0889 Q16.7617,401.437 16.7617,398.3159 Q16.7617,395.1865 18.0815,393.5347 Q19.4014,391.8828 21.9082,391.8828 Q22.6138,391.8828 23.2612,392.0322 Q23.9087,392.1816 24.4731,392.4805 L24.4731,395.2031 Q23.8423,394.6221 23.2488,394.3523 Q22.6553,394.0825 22.0244,394.0825 Q20.6797,394.0825 19.9949,395.1492 Q19.3101,396.2158 19.3101,398.3159 Q19.3101,400.4077 19.9949,401.4744 Q20.6797,402.541 22.0244,402.541 Q22.6553,402.541 23.2488,402.2712 Q23.8423,402.0015 24.4731,401.4204 Z " fill="#000000"/><text fill="#000000" font-family="sans-serif" font-size="14" lengthAdjust="spacing" textLength="110.6807" x="36" y="403.291">RecordedStream</text><line style="stroke:#181818;stroke-width:0.5;" x1="8" x2="148.6807" y1="414" y2="414"/><line style="stroke:#181818;stroke-width:0.5;" x1="8" x2="148.6807" y1="422" y2="422"/></g><!--class LiveStream--><g class="entity" data-entity="LiveStream" data-source-line="4" data-uid="ent0004" id="entity_LiveStream"><rect fill="#F1F1F1" height="48" rx="2.5" ry="2.5" style="stroke:#181818;stroke-width:0.5;" width="105.6641" x="389.51" y="382"/><ellipse cx="404.51" cy="398" fill="#ADD1B2" rx="11" ry="11" style="stroke:#181818;stroke-width:1;"/><path d="M406.9831,404.1431 Q406.4021,404.4419 405.7629,404.5913 Q405.1238,404.7407 404.4182,404.7407 Q401.9114,404.7407 400.5915,403.0889 Q399.2717,401.437 399.2717,398.3159 Q399.2717,395.1865 400.5915,393.5347 Q401.9114,391.8828 404.4182,391.8828 Q405.1238,391.8828 405.7712,392.0322 Q406.4187,392.1816 406.9831,392.4805 L406.9831,395.2031 Q406.3523,394.6221 405.7588,394.3523 Q405.1653,394.0825 404.5344,394.0825 Q403.1897,394.0825 402.5049,395.1492 Q401.8201,396.2158 401.8201,398.3159 Q401.8201,400.4077 402.5049,401.4744 Q403.1897,402.541 404.5344,402.541 Q405.1653,402.541 405.7588,402.2712 Q406.3523,402.0015 406.9831,401.4204 Z " fill="#000000"/><text fill="#000000" font-family="sans-serif" font-size="14" lengthAdjust="spacing" textLength="73.6641" x="418.51" y="403.291">LiveStream</text><line style="stroke:#181818;stroke-width:0.5;" x1="390.51" x2="494.1741" y1="414" y2="414"/><line style="stroke:#181818;stroke-width:0.5;" x1="390.51" x2="494.1741" y1="422" y2="422"/></g><!--class Character--><g class="entity" data-entity="Character" data-source-line="5" data-uid="ent0005" id="entity_Character"><rect fill="#F1F1F1" height="48" rx="2.5" ry="2.5" style="stroke:#181818;stroke-width:0.5;" width="97.502" x="278.59" y="132"/><ellipse cx="293.59" cy="148" fill="#ADD1B2" rx="11" ry="11" style="stroke:#181818;stroke-width:1;"/><path d="M296.0631,154.1431 Q295.4821,154.4419 294.8429,154.5913 Q294.2038,154.7407 293.4982,154.7407 Q290.9914,154.7407 289.6715,153.0889 Q288.3517,151.437 288.3517,148.3159 Q288.3517,145.1865 289.6715,143.5347 Q290.9914,141.8828 293.4982,141.8828 Q294.2038,141.8828 294.8512,142.0322 Q295.4987,142.1816 296.0631,142.4805 L296.0631,145.2031 Q295.4323,144.6221 294.8388,144.3523 Q294.2453,144.0825 293.6144,144.0825 Q292.2697,144.0825 291.5849,145.1492 Q290.9001,146.2158 290.9001,148.3159 Q290.9001,150.4077 291.5849,151.4744 Q292.2697,152.541 293.6144,152.541 Q294.2453,152.541 294.8388,152.2712 Q295.4323,152.0015 296.0631,151.4204 Z " fill="#000000"/><text fill="#000000" font-family="sans-serif" font-size="14" lengthAdjust="spacing" textLength="65.502" x="307.59" y="153.291">Character</text><line style="stroke:#181818;stroke-width:0.5;" x1="279.59" x2="375.092" y1="164" y2="164"/><line style="stroke:#181818;stroke-width:0.5;" x1="279.59" x2="375.092" y1="172" y2="172"/></g><!--class LandmarkFrame--><g class="entity" data-entity="LandmarkFrame" data-source-line="6" data-uid="ent0006" id="entity_LandmarkFrame"><rect fill="#F1F1F1" height="48" rx="2.5" ry="2.5" style="stroke:#181818;stroke-width:0.5;" width="141.2451" x="203.72" y="382"/><ellipse cx="218.72" cy="398" fill="#ADD1B2" rx="11" ry="11" style="stroke:#181818;stroke-width:1;"/><path d="M221.1931,404.1431 Q220.6121,404.4419 219.9729,404.5913 Q219.3338,404.7407 218.6282,404.7407 Q216.1214,404.7407 214.8015,403.0889 Q213.4817,401.437 213.4817,398.3159 Q213.4817,395.1865 214.8015,393.5347 Q216.1214,391.8828 218.6282,391.8828 Q219.3338,391.8828 219.9812,392.0322 Q220.6287,392.1816 221.1931,392.4805 L221.1931,395.2031 Q220.5623,394.6221 219.9688,394.3523 Q219.3753,394.0825 218.7444,394.0825 Q217.3997,394.0825 216.7149,395.1492 Q216.0301,396.2158 216.0301,398.3159 Q216.0301,400.4077 216.7149,401.4744 Q217.3997,402.541 218.7444,402.541 Q219.3753,402.541 219.9688,402.2712 Q220.5623,402.0015 221.1931,401.4204 Z " fill="#000000"/><text fill="#000000" font-family="sans-serif" font-size="14" lengthAdjust="spacing" textLength="109.2451" x="232.72" y="403.291">LandmarkFrame</text><line style="stroke:#181818;stroke-width:0.5;" x1="204.72" x2="343.9651" y1="414" y2="414"/><line style="stroke:#181818;stroke-width:0.5;" x1="204.72" x2="343.9651" y1="422" y2="422"/></g><!--class Routine--><g class="entity" data-entity="Routine" data-source-line="7" data-uid="ent0007" id="entity_Routine"><rect fill="#F1F1F1" height="48" rx="2.5" ry="2.5" style="stroke:#181818;stroke-width:0.5;" width="83.9121" x="285.38" y="7"/><ellipse cx="300.38" cy="23" fill="#ADD1B2" rx="11" ry="11" style="stroke:#181818;stroke-width:1;"/><path d="M302.8531,29.1431 Q302.2721,29.4419 301.6329,29.5913 Q300.9938,29.7407 300.2882,29.7407 Q297.7814,29.7407 296.4615,28.0889 Q295.1417,26.437 295.1417,23.3159 Q295.1417,20.1865 296.4615,18.5347 Q297.7814,16.8828 300.2882,16.8828 Q300.9938,16.8828 301.6412,17.0322 Q302.2887,17.1816 302.8531,17.4805 L302.8531,20.2031 Q302.2223,19.6221 301.6288,19.3523 Q301.0353,19.0825 300.4044,19.0825 Q299.0597,19.0825 298.3749,20.1492 Q297.6901,21.2158 297.6901,23.3159 Q297.6901,25.4077 298.3749,26.4744 Q299.0597,27.541 300.4044,27.541 Q301.0353,27.541 301.6288,27.2712 Q302.2223,27.0015 302.8531,26.4204 Z " fill="#000000"/><text fill="#000000" font-family="sans-serif" font-size="14" lengthAdjust="spacing" textLength="51.9121" x="314.38" y="28.291">Routine</text><line style="stroke:#181818;stroke-width:0.5;" x1="286.38" x2="368.2921" y1="39" y2="39"/><line style="stroke:#181818;stroke-width:0.5;" x1="286.38" x2="368.2921" y1="47" y2="47"/></g><!--class Scoring--><g class="entity" data-entity="Scoring" data-source-line="8" data-uid="ent0008" id="entity_Scoring"><rect fill="#F1F1F1" height="48" rx="2.5" ry="2.5" style="stroke:#181818;stroke-width:0.5;" width="82.5039" x="153.09" y="132"/><ellipse cx="168.09" cy="148" fill="#ADD1B2" rx="11" ry="11" style="stroke:#181818;stroke-width:1;"/><path d="M170.5631,154.1431 Q169.9821,154.4419 169.3429,154.5913 Q168.7038,154.7407 167.9982,154.7407 Q165.4914,154.7407 164.1715,153.0889 Q162.8517,151.437 162.8517,148.3159 Q162.8517,145.1865 164.1715,143.5347 Q165.4914,141.8828 167.9982,141.8828 Q168.7038,141.8828 169.3512,142.0322 Q169.9987,142.1816 170.5631,142.4805 L170.5631,145.2031 Q169.9323,144.6221 169.3388,144.3523 Q168.7453,144.0825 168.1144,144.0825 Q166.7697,144.0825 166.0849,145.1492 Q165.4001,146.2158 165.4001,148.3159 Q165.4001,150.4077 166.0849,151.4744 Q166.7697,152.541 168.1144,152.541 Q168.7453,152.541 169.3388,152.2712 Q169.9323,152.0015 170.5631,151.4204 Z " fill="#000000"/><text fill="#000000" font-family="sans-serif" font-size="14" lengthAdjust="spacing" textLength="50.5039" x="182.09" y="153.291">Scoring</text><line style="stroke:#181818;stroke-width:0.5;" x1="154.09" x2="234.5939" y1="164" y2="164"/><line style="stroke:#181818;stroke-width:0.5;" x1="154.09" x2="234.5939" y1="172" y2="172"/></g><!--class Asset--><g class="entity" data-entity="Asset" data-source-line="9" data-uid="ent0009" id="entity_Asset"><rect fill="#F1F1F1" height="48" rx="2.5" ry="2.5" style="stroke:#181818;stroke-width:0.5;" width="68.9688" x="499.86" y="132"/><ellipse cx="514.86" cy="148" fill="#ADD1B2" rx="11" ry="11" style="stroke:#181818;stroke-width:1;"/><path d="M517.3331,154.1431 Q516.7521,154.4419 516.1129,154.5913 Q515.4738,154.7407 514.7682,154.7407 Q512.2614,154.7407 510.9415,153.0889 Q509.6217,151.437 509.6217,148.3159 Q509.6217,145.1865 510.9415,143.5347 Q512.2614,141.8828 514.7682,141.8828 Q515.4738,141.8828 516.1212,142.0322 Q516.7687,142.1816 517.3331,142.4805 L517.3331,145.2031 Q516.7023,144.6221 516.1088,144.3523 Q515.5153,144.0825 514.8844,144.0825 Q513.5397,144.0825 512.8549,145.1492 Q512.1701,146.2158 512.1701,148.3159 Q512.1701,150.4077 512.8549,151.4744 Q513.5397,152.541 514.8844,152.541 Q515.5153,152.541 516.1088,152.2712 Q516.7023,152.0015 517.3331,151.4204 Z " fill="#000000"/><text fill="#000000" font-family="sans-serif" font-size="14" lengthAdjust="spacing" textLength="36.9688" x="528.86" y="153.291">Asset</text><line style="stroke:#181818;stroke-width:0.5;" x1="500.86" x2="567.8288" y1="164" y2="164"/><line style="stroke:#181818;stroke-width:0.5;" x1="500.86" x2="567.8288" y1="172" y2="172"/></g><!--reverse link LandmarkStream to RecordedStream--><g class="link" data-entity-1="LandmarkStream" data-entity-2="RecordedStream" data-source-line="11" data-uid="lnk10" id="link_LandmarkStream_RecordedStream"><path codeLine="11" d="M163.678,318.253 C142.148,340.143 122.8,359.8 101.3,381.66" fill="none" id="LandmarkStream-backto-RecordedStream" style="stroke:#181818;stroke-width:1;"/><polygon fill="none" points="176.3,305.42,159.4004,314.0457,167.9557,322.4603,176.3,305.42" style="stroke:#181818;stroke-width:1;"/></g><!--reverse link LandmarkStream to LiveStream--><g class="link" data-entity-1="LandmarkStream" data-entity-2="LiveStream" data-source-line="12" data-uid="lnk11" id="link_LandmarkStream_LiveStream"><path codeLine="12" d="M261.6794,313.55 C304.9194,335.44 353.05,359.8 396.23,381.66" fill="none" id="LandmarkStream-backto-LiveStream" style="stroke:#181818;stroke-width:1;"/><polygon fill="none" points="245.62,305.42,258.9694,318.9031,264.3894,308.1968,245.62,305.42" style="stroke:#181818;stroke-width:1;"/></g><!--link Routine to Character--><g class="link" data-entity-1="Routine" data-entity-2="Character" data-source-line="14" data-uid="lnk12" id="link_Routine_Character"><path codeLine="14" d="M327.34,55.42 C327.34,77.31 327.34,103.8 327.34,125.66" fill="none" id="Routine-to-Character" style="stroke:#181818;stroke-width:1;stroke-dasharray:7.0,7.0;"/><polygon fill="#181818" points="327.34,131.66,331.34,122.66,327.34,126.66,323.34,122.66,327.34,131.66" style="stroke:#181818;stroke-width:1;"/><text fill="#000000" font-family="sans-serif" font-size="13" lengthAdjust="spacing" textLength="28.5645" x="328.34" y="98.5684">uses</text></g><!--link Routine to Scoring--><g class="link" data-entity-1="Routine" data-entity-2="Scoring" data-source-line="15" data-uid="lnk13" id="link_Routine_Scoring"><path codeLine="15" d="M302.01,55.42 C278.35,77.31 247.6144,105.7255 223.9844,127.5855" fill="none" id="Routine-to-Scoring" style="stroke:#181818;stroke-width:1;stroke-dasharray:7.0,7.0;"/><polygon fill="#181818" points="219.58,131.66,228.9029,128.4845,223.2503,128.2646,223.4703,122.612,219.58,131.66" style="stroke:#181818;stroke-width:1;"/><text fill="#000000" font-family="sans-serif" font-size="13" lengthAdjust="spacing" textLength="45.1318" x="269.8" y="98.5684">creates</text></g><!--link Routine to LiveStream--><g class="link" data-entity-1="Routine" data-entity-2="LiveStream" data-source-line="16" data-uid="lnk14" id="link_Routine_LiveStream"><path codeLine="16" d="M347.23,55.37 C362.47,74.63 382.64,103.35 393.34,132 C426.36,220.42 437.1136,327.4852 440.5436,375.6252" fill="none" id="Routine-to-LiveStream" style="stroke:#181818;stroke-width:1;stroke-dasharray:7.0,7.0;"/><polygon fill="#181818" points="440.97,381.61,444.3203,372.3485,440.6146,376.6226,436.3405,372.917,440.97,381.61" style="stroke:#181818;stroke-width:1;"/><text fill="#000000" font-family="sans-serif" font-size="13" lengthAdjust="spacing" textLength="45.1318" x="420.5" y="223.5684">creates</text></g><!--link Routine to RecordedStream--><g class="link" data-entity-1="Routine" data-entity-2="RecordedStream" data-source-line="17" data-uid="lnk15" id="link_Routine_RecordedStream"><path codeLine="17" d="M285.26,42.48 C241.01,55.74 172.72,82.99 135.34,132 C76.9,208.61 74.6337,325.0847 76.6337,375.8247" fill="none" id="Routine-to-RecordedStream" style="stroke:#181818;stroke-width:1;stroke-dasharray:7.0,7.0;"/><polygon fill="#181818" points="76.87,381.82,80.5124,372.6694,76.6731,376.8239,72.5186,372.9845,76.87,381.82" style="stroke:#181818;stroke-width:1;"/><text fill="#000000" font-family="sans-serif" font-size="13" lengthAdjust="spacing" textLength="45.1318" x="96.97" y="223.5684">creates</text></g><!--link Routine to Asset--><g class="link" data-entity-1="Routine" data-entity-2="Asset" data-source-line="18" data-uid="lnk16" id="link_Routine_Asset"><path codeLine="18" d="M369.62,41.29 C400.29,49.41 441.76,63.34 473.34,85 C491.55,97.49 504.1852,111.8265 515.3052,126.9465" fill="none" id="Routine-to-Asset" style="stroke:#181818;stroke-width:1;stroke-dasharray:7.0,7.0;"/><polygon fill="#181818" points="518.86,131.78,516.7501,122.1598,515.8976,127.752,510.3054,126.8996,518.86,131.78" style="stroke:#181818;stroke-width:1;"/><text fill="#000000" font-family="sans-serif" font-size="13" lengthAdjust="spacing" textLength="28.5645" x="493.75" y="98.5684">uses</text></g><!--link Character to LandmarkStream--><g class="link" data-entity-1="Character" data-entity-2="LandmarkStream" data-source-line="21" data-uid="lnk17" id="link_Character_LandmarkStream"><path codeLine="21" d="M302.96,180.42 C280.19,202.31 250.6955,230.6419 227.9555,252.5019" fill="none" id="Character-to-LandmarkStream" style="stroke:#181818;stroke-width:1;stroke-dasharray:7.0,7.0;"/><polygon fill="#181818" points="223.63,256.66,232.8903,253.3065,227.2346,253.1949,227.3462,247.5391,223.63,256.66" style="stroke:#181818;stroke-width:1;"/><text fill="#000000" font-family="sans-serif" font-size="13" lengthAdjust="spacing" textLength="28.5645" x="272" y="223.5684">uses</text></g><!--link Character to LandmarkFrame--><g class="link" data-entity-1="Character" data-entity-2="LandmarkFrame" data-source-line="22" data-uid="lnk18" id="link_Character_LandmarkFrame"><path codeLine="22" d="M322.35,180.33 C312.25,227.6 290.7235,328.3124 280.6035,375.6824" fill="none" id="Character-to-LandmarkFrame" style="stroke:#181818;stroke-width:1;stroke-dasharray:7.0,7.0;"/><polygon fill="#181818" points="279.35,381.55,285.142,373.5843,280.3946,376.6603,277.3186,371.9129,279.35,381.55" style="stroke:#181818;stroke-width:1;"/><text fill="#000000" font-family="sans-serif" font-size="13" lengthAdjust="spacing" textLength="50.8193" x="306.24" y="286.0684">receives</text></g><!--link LandmarkStream to LandmarkFrame--><g class="link" data-entity-1="LandmarkStream" data-entity-2="LandmarkFrame" data-source-line="24" data-uid="lnk19" id="link_LandmarkStream_LandmarkFrame"><path codeLine="24" d="M201.96,305.34 C204.35,319.6 208.87,337.77 217.34,352 C223.9,363.03 228.9761,369.172 238.3761,377.572" fill="none" id="LandmarkStream-to-LandmarkFrame" style="stroke:#181818;stroke-width:1;stroke-dasharray:7.0,7.0;"/><polygon fill="#181818" points="242.85,381.57,238.8044,372.5904,239.1217,378.2383,233.4738,378.5556,242.85,381.57" style="stroke:#181818;stroke-width:1;"/><text fill="#000000" font-family="sans-serif" font-size="13" lengthAdjust="spacing" textLength="36.7466" x="218.34" y="348.5684">sends</text></g><!--link Scoring to LandmarkStream--><g class="link" data-entity-1="Scoring" data-entity-2="LandmarkStream" data-source-line="25" data-uid="lnk20" id="link_Scoring_LandmarkStream"><path codeLine="25" d="M187.12,180.32 C183.79,193.92 181.04,211.42 183.34,227 C184.8,236.89 185.8597,241.7824 188.8097,250.8824" fill="none" id="Scoring-to-LandmarkStream" style="stroke:#181818;stroke-width:1;stroke-dasharray:7.0,7.0;"/><polygon fill="#181818" points="190.66,256.59,191.6897,246.7951,189.1181,251.8337,184.0796,249.2621,190.66,256.59" style="stroke:#181818;stroke-width:1;"/><text fill="#000000" font-family="sans-serif" font-size="13" lengthAdjust="spacing" textLength="61.3311" x="184.34" y="223.5684">compares</text></g><!--SRC=[TP313i8W38RlF0Kli3s0CIR6nDDExWcQKfKepBHi9nzUN22JoOvjF_v-nVf0V0KatO4t3lZH1oPm2fyWeY-40nioHREp4nMDqnqOC0Pb84MT6Hpbf64CrkUgZx7Mtr9r5A6WL6cWz- -cMGlKa1yTbRRejZqiLdgdHo4fXaaWZZ2-3Alf4ha1b5eRq7nMNgxKuZElA2z9L9sP_p4YJ4ZHJFw-gWOBUICgtrbTYODx0N_pFW00]--></g></svg>